<svg xmlns="http://www.w3.org/2000/svg" xmlns:xlink="http://www.w3.org/1999/xlink" version="1.1" height="50" width="308.1199951171875"
  viewBox="0 0 308.1199951171875 50">
  <defs id="SvgjsDefs1008"></defs>
  <g id="SvgjsG1009" rel="mainfill" name="main_text" xmlns:name="mainText_mainfill" fill="#ffffff" transform="translate(-1.9999990463256836,-10)">
    <path d="M23.16 22.96 l-16.2 0 l-4.96 -4.96 l16.16 0 z M17.92 45.52 l-10.72 -10.76 l0 -10.96 l10.72 0 l0 21.72 z M7.2 35.92 l10.2 10.2 l-10.2 0 l0 -10.2 z M18.16 46.88 l5 5 l-16.2 0 l-4.96 -5 l16.16 0 z M27.16 18.6 l4.96 4.96 l0 27.72 l-4.96 -4.96 l0 -27.72 z M44.519999999999996 18.6 l4.96 4.96 l0 16.16 l-4.96 -4.96 l0 -16.16 z M48.879999999999995 40.28 l-15.92 0 l0 -15.96 z M38.36 41.08 l11.12 0 l0 10.24 z M64.84 28.8 l-10.76 -10.76 l10.44 0 l5.56 5.56 l0 5.2 l-5.24 0 z M53.480000000000004 18.64 l21.84 21.76 l-10.48 0 l-11.36 -11.36 l0 -10.4 z M53.480000000000004 35.96 l16.04 16.04 l-10.48 0 l-5.56 -5.56 l0 -10.48 z M59.88 41.24 l16 0 l0 5.2 l-5.4 5.44 z M101.04 22.96 l-16.2 0 l-4.96 -4.96 l16.16 0 z M95.80000000000001 45.52 l-10.72 -10.76 l0 -10.96 l10.72 0 l0 21.72 z M85.08000000000001 35.92 l10.2 10.2 l-10.2 0 l0 -10.2 z M96.04 46.88 l5 5 l-16.2 0 l-4.96 -5 l16.16 0 z M126.76 22.96 l-16.16 0 l-4.96 -4.96 l16.16 0 z M105.04 18.6 l4.96 4.96 l0 27.76 l-4.96 -4.96 l0 -27.76 z M110.84 23.8 l10.76 0 l0 28.08 l-10.76 0 l0 -28.08 z M122.4 23.8 l4.96 0 l0 22.56 l-4.96 4.96 l0 -27.52 z M153.08 22.96 l-16.16 0 l-4.96 -4.96 l16.16 0 z M131.36 18.6 l4.96 4.96 l0 27.76 l-4.96 -4.96 l0 -27.76 z M142.12 23.8 l0 22.32 l-4.96 0 l0 -22.32 l4.96 0 z M142.92000000000002 32.480000000000004 l5.2 0 l4.96 4.96 l-10.16 0 l0 -4.96 z M137.16000000000003 46.88 l10.96 0 l4.96 5 l-15.92 0 l0 -5 z M173.92000000000002 18.04 l5.56 5.56 l0 5.44 l-5.4 5.44 l-16.4 -16.44 l16.24 0 z M173.12 34.6 l-10.48 0 l-5.56 -5.56 l0 -10.4 z M157.08 30.2 l5 5 l0 16.24 l-5 -5 l0 -16.24 z M173.92000000000002 35.44 l5.56 5.56 l0 10.44 l-16 -16 l10.44 0 z M194.84000000000003 28.8 l-10.76 -10.76 l10.44 0 l5.56 5.56 l0 5.2 l-5.24 0 z M183.48000000000002 18.64 l21.84 21.76 l-10.48 0 l-11.36 -11.36 l0 -10.4 z M183.48000000000002 35.96 l16.04 16.04 l-10.48 0 l-5.56 -5.56 l0 -10.48 z M189.88000000000002 41.24 l16 0 l0 5.2 l-5.4 5.44 z M225.88000000000002 22.96 l-10.44 0 l-4.96 -4.96 l10.4 0 z M209.88000000000002 18.6 l4.96 4.96 l0 27.76 l-4.96 -4.96 l0 -27.76 z M216.28000000000003 23.8 l10.16 0 l0 10.2 z M215.68000000000004 24.32 l16.52 16.56 l0 5.48 l-5.56 5.52 l-10.96 0 l0 -27.56 z M236.20000000000002 18.6 l21.84 21.8 l-21.84 0 l0 -21.8 z M253.60000000000002 18.6 l4.96 5 l0 16.24 l-4.96 -5 l0 -16.24 z M247.96 41.2 l10.08 0 l-10.08 10.24 l0 -10.24 z M236.8 52 l10.32 -10.32 l0 10.32 l-10.32 0 z M278.6 23 l-16.04 0 l0 -4.96 l11.04 0 z M279.36 18.04 l5.04 4.96 l-4.68 0 l-4.96 -4.96 l4.6 0 z M268.96 23.84 l10.2 0 l0 10.2 z M268.36 24.4 l10.8 10.8 l0 16.24 l-10.8 -10.8 l0 -16.24 z M310.12 22.96 l-16.16 0 l-4.96 -4.96 l16.16 0 z M288.4 18.6 l4.96 4.96 l0 27.76 l-4.96 -4.96 l0 -27.76 z M299.15999999999997 23.8 l0 22.32 l-4.96 0 l0 -22.32 l4.96 0 z M299.96 32.480000000000004 l5.2 0 l4.96 4.96 l-10.16 0 l0 -4.96 z M294.2 46.88 l10.96 0 l4.96 5 l-15.92 0 l0 -5 z"></path>
  </g>
</svg>
